<?xml version="1.0" encoding="utf-8"?>
<!-- Generator: Adobe Illustrator 16.0.0, SVG Export Plug-In . SVG Version: 6.00 Build 0)  -->
<!DOCTYPE svg PUBLIC "-//W3C//DTD SVG 1.1//EN" "http://www.w3.org/Graphics/SVG/1.1/DTD/svg11.dtd">
<svg version="1.1" id="Layer_1" xmlns="http://www.w3.org/2000/svg" xmlns:xlink="http://www.w3.org/1999/xlink" x="0px" y="0px"
	 width="100px" height="100px" viewBox="0 0 100 100" enable-background="new 0 0 100 100" xml:space="preserve">
<g id="XMLID_1419_">
	<path id="XMLID_1421_" fill="#3E5C9A" d="M49.754,100.041L49.754,100.041c-27.349,0-49.521-22.171-49.521-49.521l0,0
		C0.233,23.171,22.405,1,49.754,1l0,0c27.35,0,49.521,22.171,49.521,49.521l0,0C99.274,77.87,77.104,100.041,49.754,100.041z"/>
	<path id="XMLID_1420_" fill="#FFFFFF" d="M42.209,80.453h12.053V50.266h8.411l0.896-10.107h-9.308c0,0,0-3.774,0-5.757
		c0-2.383,0.479-3.325,2.783-3.325c1.854,0,6.524,0,6.524,0V20.588c0,0-6.879,0-8.347,0c-8.97,0-13.014,3.951-13.014,11.512
		c0,6.587,0,8.059,0,8.059h-6.272v10.234h6.272V80.453z"/>
</g>
</svg>
