<?xml version="1.0" encoding="utf-8"?>
<!-- Generator: Adobe Illustrator 16.0.0, SVG Export Plug-In . SVG Version: 6.00 Build 0)  -->
<!DOCTYPE svg PUBLIC "-//W3C//DTD SVG 1.1//EN" "http://www.w3.org/Graphics/SVG/1.1/DTD/svg11.dtd">
<svg version="1.1" id="Layer_1" xmlns="http://www.w3.org/2000/svg" xmlns:xlink="http://www.w3.org/1999/xlink" x="0px" y="0px"
	 width="100px" height="100px" viewBox="0 0 100 100" enable-background="new 0 0 100 100" xml:space="preserve">
<g id="XMLID_1419_" display="none">
	<path id="XMLID_1421_" display="inline" fill="#3E5C9A" d="M49.754,100.041L49.754,100.041c-27.349,0-49.521-22.171-49.521-49.521
		l0,0C0.233,23.171,22.405,1,49.754,1l0,0c27.35,0,49.521,22.171,49.521,49.521l0,0C99.274,77.87,77.104,100.041,49.754,100.041z"/>
	<path id="XMLID_1420_" display="inline" fill="#FFFFFF" d="M42.209,80.453h12.053V50.266h8.411l0.896-10.107h-9.308
		c0,0,0-3.774,0-5.757c0-2.383,0.479-3.325,2.783-3.325c1.854,0,6.524,0,6.524,0V20.588c0,0-6.879,0-8.347,0
		c-8.97,0-13.014,3.951-13.014,11.512c0,6.587,0,8.059,0,8.059h-6.272v10.234h6.272V80.453z"/>
</g>
<g id="XMLID_1442_">
	<path id="XMLID_1446_" fill="#DF4B38" d="M49.918,98.728L49.918,98.728c-26.986,0-48.863-21.877-48.863-48.864l0,0
		C1.055,22.877,22.932,1,49.918,1l0,0c26.986,0,48.863,21.877,48.863,48.863l0,0C98.781,76.851,76.904,98.728,49.918,98.728z"/>
	<g id="XMLID_1443_">
		<path id="XMLID_1445_" fill="#FFFFFF" d="M56.027,48.59H36.285l0.023,5.655h13.311c-1.574,6.884-6.433,11.105-12.954,11.105
			c-8.554,0-15.488-6.934-15.488-15.487s6.934-15.488,15.488-15.488c4.067,0,7.766,1.57,10.529,4.134l4.368-3.766
			c-3.833-3.777-9.092-6.11-14.897-6.11c-11.725,0-21.229,9.505-21.229,21.229c0,11.725,9.503,21.229,21.229,21.229
			c11.259,0,19.395-8.587,19.395-20.312L56.027,48.59z"/>
		<polygon id="XMLID_1444_" fill="#FFFFFF" points="84.4,48.824 76.252,48.824 76.252,40.674 71.053,40.674 71.053,48.824 
			62.902,48.824 62.902,54.022 71.053,54.022 71.053,62.172 76.252,62.172 76.252,54.022 84.4,54.022 		"/>
	</g>
</g>
</svg>
