<?xml version="1.0" encoding="utf-8"?>
<!-- Generator: Adobe Illustrator 16.0.0, SVG Export Plug-In . SVG Version: 6.00 Build 0)  -->
<!DOCTYPE svg PUBLIC "-//W3C//DTD SVG 1.1//EN" "http://www.w3.org/Graphics/SVG/1.1/DTD/svg11.dtd">
<svg version="1.1" id="Layer_1" xmlns="http://www.w3.org/2000/svg" xmlns:xlink="http://www.w3.org/1999/xlink" x="0px" y="0px"
	 width="100px" height="100px" viewBox="0 0 100 100" enable-background="new 0 0 100 100" xml:space="preserve">
<g display="none">
	<g display="inline">
		<g>
			<g>
				<path fill="#3B5998" d="M99.814,49.791c0,26.835-21.244,48.718-47.85,49.739c-0.64,0.053-1.277,0.053-1.941,0.053
					c-5.106,0-10.035-0.768-14.681-2.223C15.018,91.128,0.233,72.184,0.233,49.791C0.233,22.292,22.523,0,50.023,0
					C77.524,0,99.814,22.292,99.814,49.791z"/>
			</g>
			<g>
				<path fill="#FFFFFF" d="M51.965,44.225v5.669h16.598v11.872H51.965v37.764c-0.64,0.053-1.277,0.053-1.941,0.053
					c-5.106,0-10.035-0.768-14.681-2.223V61.766h-10.57V49.867l10.57,0.026v-6.435c0-7.584,1.839-13.175,5.514-16.623
					c3.679-3.448,9.755-5.183,18.054-5.183c5.95,0,11.337,0.817,16.035,2.451l-4.06,11.745c-3.523-0.996-6.844-1.506-9.907-1.506
					c-3.141,0-5.466,0.971-6.92,2.911C52.681,39.091,51.965,41.44,51.965,44.225z"/>
			</g>
		</g>
	</g>
</g>
<g display="none">
	<g display="inline">
		<g>
			<g>
				<path fill="#38CF00" d="M99.981,49.874c0,26.881-21.279,48.8-47.931,49.822c-0.64,0.053-1.279,0.053-1.943,0.053
					c-5.115,0-10.051-0.769-14.706-2.228C15.043,91.28,0.233,72.305,0.233,49.874C0.233,22.329,22.562,0,50.107,0
					C77.654,0,99.981,22.329,99.981,49.874z"/>
			</g>
			<g>
				<path fill="#FFFFFF" d="M19.212,52.632C20.728,65.13,32.393,75.301,46.75,76.724c7.97,0.792,15.425-1.053,21.367-4.714
					l10.129,4.347c0.365,0.157,0.751-0.16,0.594-0.484l-4.39-9.054c4.563-4.938,7.12-11.297,6.688-18.261
					C80.356,36.012,69.375,25.283,55.11,23.225C34.727,20.281,17.045,34.765,19.212,52.632z"/>
			</g>
			<text transform="matrix(1 0 0 1 26.2979 55.7891)" fill="#38CF00" font-family="'OpenSans-Bold'" font-size="20.9869">LINE</text>
		</g>
	</g>
</g>
<g>
	<g>
		<g>
			<g>
				<g>
					<g>
						<linearGradient id="SVGID_1_" gradientUnits="userSpaceOnUse" x1="14.8677" y1="85.0645" x2="84.9051" y2="15.027">
							<stop  offset="0" style="stop-color:#F0B173"/>
							<stop  offset="0.5455" style="stop-color:#C53093"/>
							<stop  offset="1" style="stop-color:#873093"/>
						</linearGradient>
						<path fill="url(#SVGID_1_)" d="M99.938,50.051c0,26.977-21.355,48.973-48.101,49.999c-0.642,0.051-1.283,0.051-1.95,0.051
							c-5.133,0-10.088-0.769-14.758-2.232C14.698,91.606-0.165,72.561-0.165,50.051C-0.165,22.407,22.242,0,49.887,0
							S99.938,22.407,99.938,50.051z"/>
					</g>
				</g>
				<g>
					<g>
						<radialGradient id="SVGID_2_" cx="2.3125" cy="-4.1709" r="77.7486" gradientUnits="userSpaceOnUse">
							<stop  offset="0" style="stop-color:#222D80"/>
							<stop  offset="1" style="stop-color:#222D80;stop-opacity:0"/>
						</radialGradient>
						<path fill="url(#SVGID_2_)" d="M99.938,50.051c0,26.977-21.355,48.973-48.101,49.999c-0.642,0.051-1.283,0.051-1.95,0.051
							c-5.133,0-10.088-0.769-14.758-2.232C14.698,91.606-0.165,72.561-0.165,50.051C-0.165,22.407,22.242,0,49.887,0
							S99.938,22.407,99.938,50.051z"/>
					</g>
				</g>
			</g>
			<g>
				<g>
					<path fill="#FFFFFF" d="M68.135,80.948h-36.5c-6.781,0-12.298-5.518-12.298-12.299V33.783c0-6.781,5.518-12.298,12.298-12.298
						h36.5c6.783,0,12.301,5.518,12.301,12.298v34.866C80.436,75.431,74.918,80.948,68.135,80.948z M31.635,25.335
						c-4.66,0-8.448,3.79-8.448,8.448v34.866c0,4.657,3.789,8.449,8.448,8.449h36.5c4.662,0,8.451-3.792,8.451-8.449V33.783
						c0-4.658-3.789-8.448-8.451-8.448H31.635z"/>
				</g>
				<g>
					<path fill="#FFFFFF" d="M49.887,67.57c-9.253,0-16.777-7.336-16.777-16.354c0-9.017,7.524-16.353,16.777-16.353
						c9.25,0,16.776,7.335,16.776,16.353C66.663,60.234,59.137,67.57,49.887,67.57z M49.887,38.714
						c-7.13,0-12.927,5.608-12.927,12.503s5.797,12.502,12.927,12.502c7.129,0,12.927-5.607,12.927-12.502
						S57.016,38.714,49.887,38.714z"/>
				</g>
				<ellipse fill="#FFFFFF" cx="68.428" cy="33.116" rx="2.791" ry="2.71"/>
			</g>
		</g>
	</g>
</g>
</svg>
