<?xml version="1.0" encoding="utf-8"?>
<!-- Generator: Adobe Illustrator 16.0.0, SVG Export Plug-In . SVG Version: 6.00 Build 0)  -->
<!DOCTYPE svg PUBLIC "-//W3C//DTD SVG 1.1//EN" "http://www.w3.org/Graphics/SVG/1.1/DTD/svg11.dtd">
<svg version="1.1" id="Layer_1" xmlns="http://www.w3.org/2000/svg" xmlns:xlink="http://www.w3.org/1999/xlink" x="0px" y="0px"
	 width="100px" height="100px" viewBox="0 0 100 100" enable-background="new 0 0 100 100" xml:space="preserve">
<g display="none">
	<g display="inline">
		<g>
			<g>
				<path fill="#3B5998" d="M99.814,49.791c0,26.835-21.244,48.718-47.85,49.739c-0.64,0.053-1.277,0.053-1.941,0.053
					c-5.106,0-10.035-0.768-14.681-2.223C15.018,91.128,0.233,72.184,0.233,49.791C0.233,22.292,22.523,0,50.023,0
					C77.524,0,99.814,22.292,99.814,49.791z"/>
			</g>
			<g>
				<path fill="#FFFFFF" d="M51.965,44.225v5.669h16.598v11.872H51.965v37.764c-0.64,0.053-1.277,0.053-1.941,0.053
					c-5.106,0-10.035-0.768-14.681-2.223V61.766h-10.57V49.867l10.57,0.026v-6.435c0-7.584,1.839-13.175,5.514-16.623
					c3.679-3.448,9.755-5.183,18.054-5.183c5.95,0,11.337,0.817,16.035,2.451l-4.06,11.745c-3.523-0.996-6.844-1.506-9.907-1.506
					c-3.141,0-5.466,0.971-6.92,2.911C52.681,39.091,51.965,41.44,51.965,44.225z"/>
			</g>
		</g>
	</g>
</g>
<g>
	<g>
		<g>
			<g>
				<path fill="#38CF00" d="M99.981,49.874c0,26.881-21.279,48.8-47.931,49.822c-0.64,0.053-1.279,0.053-1.943,0.053
					c-5.115,0-10.051-0.769-14.706-2.228C15.043,91.28,0.233,72.305,0.233,49.874C0.233,22.329,22.562,0,50.107,0
					C77.654,0,99.981,22.329,99.981,49.874z"/>
			</g>
			<g>
				<path fill="#FFFFFF" d="M19.212,52.632C20.728,65.13,32.393,75.301,46.75,76.724c7.97,0.792,15.425-1.053,21.367-4.714
					l10.129,4.347c0.365,0.157,0.751-0.16,0.594-0.484l-4.39-9.054c4.563-4.938,7.12-11.297,6.688-18.261
					C80.356,36.012,69.375,25.283,55.11,23.225C34.727,20.281,17.045,34.765,19.212,52.632z"/>
			</g>
			<text transform="matrix(1 0 0 1 26.2979 55.7891)" fill="#38CF00" font-family="'OpenSans-Bold'" font-size="20.9869">LINE</text>
		</g>
	</g>
</g>
</svg>
