<?xml version="1.0" encoding="utf-8"?>
<!-- Generator: Adobe Illustrator 16.0.0, SVG Export Plug-In . SVG Version: 6.00 Build 0)  -->
<!DOCTYPE svg PUBLIC "-//W3C//DTD SVG 1.1//EN" "http://www.w3.org/Graphics/SVG/1.1/DTD/svg11.dtd">
<svg version="1.1" id="Layer_1" xmlns="http://www.w3.org/2000/svg" xmlns:xlink="http://www.w3.org/1999/xlink" x="0px" y="0px"
	 width="198px" height="70.5px" viewBox="0 0 198 70.5" enable-background="new 0 0 198 70.5" xml:space="preserve">
<g>
	<g>
		<g>
			<path fill="#655F5B" d="M70.706,43.818l-0.593,4.409c-0.05,0.337-0.158,0.283-0.477,0.283H54.007
				c-0.802,0-1.654,0.162-2.456,0.162c-0.372,0-0.691-0.162-0.691-0.611c0-0.499,0.645-0.499,1.011-0.499
				c2.775,0,2.617-0.844,2.617-3.512V26.963c0-2.566,0.159-3.413-2.617-3.413c-0.366,0-1.011,0-1.011-0.5
				c0-0.449,0.32-0.619,0.691-0.619c2.456,0,5.019,0.169,7.524,0.169c3.415,0,6.774-0.169,10.183-0.169
				c0.75,0,0.535,1.006,0.535,1.517v3.627c0,0.22,0.056,0.89-0.322,0.89c-0.37,0-0.527-0.554-0.635-0.842l-0.641-1.165
				c-0.587-1.343-1.122-2.061-2.45-2.51c-1.341-0.397-3.045-0.397-4.433-0.397c-0.638,0-2.399,0-3.041,0.225
				c-0.746,0.337-0.637,1.233-0.637,1.957v6.083c0,1.955,0.371,1.955,2.029,1.955c1.172,0,3.248,0.058,4.854-0.163
				c0.959-0.112,1.172-1.679,1.388-2.906c0.049-0.224,0.157-0.731,0.531-0.731c0.159,0,0.424,0.119,0.424,0.455
				c-0.051,1.168-0.105,2.393-0.211,3.571c0.106,1.34,0.16,2.625,0.211,3.965c0,0.669-0.265,0.724-0.424,0.724
				c-0.374,0-0.482-0.443-0.531-0.665c-0.216-1.234-0.54-2.513-1.388-2.684c-1.607-0.395-3.683-0.395-4.854-0.395
				c-1.605,0-2.029,0-2.029,1.395v7.322c0,3.843,1.76,3.907,4.954,3.907c3.419,0,5.607-0.118,6.993-3.798
				c0.112-0.284,0.373-1.398,0.853-1.398c0.319,0,0.43,0.167,0.43,0.439C70.865,43.145,70.754,43.481,70.706,43.818z"/>
			<path fill="#655F5B" d="M98.752,23.55c-2.773,0-2.612,0.898-2.612,3.466v21.272c0,0.222,0.061,0.836-0.263,0.836
				c-0.48,0-0.806-0.733-1.012-1.063L78.063,25.226v18.927c0,2.565-0.211,3.461,2.613,3.461c0.322,0,0.959-0.115,0.959,0.447
				c0,0.45-0.266,0.611-0.637,0.611c-1.227,0-2.346-0.162-3.524-0.162c-1.113,0-2.345,0.162-3.519,0.162
				c-0.377,0-0.692-0.162-0.692-0.611c0-0.562,0.692-0.447,1.011-0.447c2.829,0,2.615-0.896,2.615-3.461V27.016
				c0-2.619,0.214-3.466-2.615-3.466c-0.319,0-0.958,0-0.958-0.441c0-0.678,0.483-0.678,0.958-0.678h4.964
				c0.793,0.169,1.12,0.79,1.602,1.458l14.183,19.205V27.016c0-2.619,0.163-3.466-2.668-3.466c-0.318,0-0.956,0-0.956-0.441
				c0-0.508,0.315-0.678,0.694-0.678c1.225,0,2.347,0.169,3.518,0.169c1.229,0,2.342-0.161,3.467-0.161
				c0.372,0,0.689,0.161,0.689,0.669C99.768,23.55,99.126,23.55,98.752,23.55z"/>
			<path fill="#655F5B" d="M123.768,45.214c-2.985,2.737-6.502,3.458-10.4,3.458c-2.926,0-5.914-0.162-8.793-0.162
				c-0.854,0-1.654,0.162-2.508,0.162c-0.377,0-0.694-0.162-0.694-0.611c0-0.499,0.638-0.444,1.067-0.444
				c2.771,0,2.557-0.898,2.557-3.566V26.74c0-1.286,0.268-2.965-1.275-2.965c-0.859,0-1.607,0.446-2.031,0.446
				c-0.268,0-0.424-0.218-0.424-0.446c0-1.504,9.865-2.003,11.471-2.003c3.67,0,7.302,0.891,10.285,3.236
				c3.045,2.403,5.017,6.14,5.017,10.158C128.036,39.013,126.492,42.7,123.768,45.214z M112.039,22.716
				c-0.803,0-2.83,0.062-3.411,0.722c-0.487,0.506-0.431,1.788-0.431,2.459V43.26c0,3.742,0.798,4.632,4.263,4.632
				c3.367,0,6.183-0.667,8.644-3.348c2.135-2.345,3.308-5.697,3.308-8.988C124.41,27.795,119.291,22.716,112.039,22.716z"/>
			<path fill="#655F5B" d="M145.316,49.007c-7.2,0-13.918-6.023-13.918-13.673c0-7.597,6.718-13.563,13.918-13.563
				c7.632,0,13.926,5.521,13.926,13.563C159.242,43.426,152.948,49.007,145.316,49.007z M152.993,26.682
				c-1.919-2.4-4.586-3.797-7.575-3.797c-3.145,0-6.016,1.397-7.941,3.91c-1.815,2.4-2.5,5.523-2.5,8.54
				c0,3.18,0.736,6.365,2.658,8.768c1.92,2.455,4.745,3.739,7.783,3.739c3.096,0,5.821-1.563,7.734-4.023
				c1.875-2.508,2.459-5.304,2.459-8.484C155.611,32.153,154.967,29.248,152.993,26.682z"/>
			<path fill="#655F5B" d="M183.875,48.672h-4.207c-0.803,0-1.068-0.78-1.387-1.447l-3.898-8.151
				c-1.438-2.898-1.384-3.23-4.426-3.23c-0.316,0-0.691-0.063-0.9,0.157c-0.218,0.333-0.218,1.338-0.218,1.678v6.475
				c0,2.684-0.164,3.41,2.615,3.464c0.371,0,1.063-0.054,1.063,0.503c0,0.501-0.314,0.553-0.692,0.553
				c-1.556,0-2.986-0.162-4.483-0.162c-1.544,0-3.035,0.162-4.589,0.162c-0.315,0-0.633-0.052-0.633-0.553
				c0-0.557,0.633-0.503,0.961-0.503c2.827,0,2.61-0.841,2.61-3.464V27.016c0-2.68,0.217-3.466-2.61-3.466
				c-0.328,0-0.961,0-0.961-0.5c0-0.449,0.265-0.61,0.696-0.61c1.281,0,2.662,0.161,3.938,0.161c2.302,0,4.535-0.161,6.827-0.161
				c3.786,0,7.576,1.957,7.576,6.365c0,3.791-3.044,6.025-6.354,6.475c1.291,0.225,1.875,1.672,2.459,2.738l3.254,6.526
				c0.691,1.513,1.276,3.072,3.039,3.072c0.316,0,1.064,0,1.064,0.611C184.623,48.621,184.195,48.672,183.875,48.672z
				 M171.988,23.27c-3.047,0-3.149,0.447-3.149,3.355v7.532c0,1.009,1.39,0.729,2.078,0.729c1.815,0,3.466-0.172,4.959-1.393
				c1.34-1.012,1.864-2.573,1.864-4.247C177.74,25.389,175.557,23.27,171.988,23.27z"/>
			<path fill="#655F5B" d="M195.023,48.672c-1.545,0-2.982-0.162-4.481-0.162c-1.543,0-3.038,0.162-4.584,0.162
				c-0.315,0-0.644-0.052-0.644-0.553c0-0.557,0.644-0.503,0.961-0.503c2.828,0,2.619-0.841,2.619-3.464V26.963
				c0-2.627,0.209-3.413-2.619-3.413c-0.317,0-0.961,0-0.961-0.56c0-0.442,0.273-0.551,0.644-0.551c1.546,0,2.985,0.168,4.479,0.168
				c1.551,0,3.041-0.168,4.586-0.168c0.373,0,0.692,0.114,0.692,0.556c0,0.554-0.692,0.554-1.069,0.554
				c-2.77,0-2.605,0.786-2.605,3.413v17.189c0,2.684-0.163,3.41,2.605,3.464c0.377,0,1.069-0.054,1.069,0.503
				C195.717,48.621,195.396,48.672,195.023,48.672z"/>
		</g>
		<g>
			<g>
				<path fill="#655F5B" d="M27.639,53.251C38.426,39.778,46.809,19.553,50,10.487c1.027-1.335,2.013-2.794,2.932-4.413
					c-0.69,0.581-1.356,1.123-2.004,1.636c0.039-0.125,0.077-0.25,0.111-0.363c-0.073,0.15-0.148,0.303-0.222,0.453
					C28.544,25.392,30.254,4.476,5.262,23.472c11.626-7.119,19.388-3.46,26.95-3.027c5.148,0.286,11.309-2.393,16.53-8.413
					c-6.877,14.062-14.683,30.122-23.793,41.065c-5.746-0.063-11.603,1.959-20.465,12.979c7.915-6.274,12.421-8.02,16.273-8.434
					c-5.026,4.887-10.43,8.058-16.273,8.434c6.781,1.451,13.392-2.299,19.409-8.541c5.622,0.131,11.495,1.302,27.269-7.658
					C40.505,55.604,33.874,53.84,27.639,53.251z"/>
			</g>
		</g>
	</g>
</g>
</svg>
