<?xml version="1.0" encoding="utf-8"?>
<!-- Generator: Adobe Illustrator 16.0.0, SVG Export Plug-In . SVG Version: 6.00 Build 0)  -->
<!DOCTYPE svg PUBLIC "-//W3C//DTD SVG 1.1//EN" "http://www.w3.org/Graphics/SVG/1.1/DTD/svg11.dtd">
<svg version="1.1" id="Layer_1" xmlns="http://www.w3.org/2000/svg" xmlns:xlink="http://www.w3.org/1999/xlink" x="0px" y="0px"
	 width="100px" height="100px" viewBox="0 0 100 100" enable-background="new 0 0 100 100" xml:space="preserve">
<g>
	<g>
		<g>
			<g>
				<g>
					<g>
						<path fill="#55ACF2" d="M100.812,50.311c0,27.115-21.464,49.229-48.348,50.257c-0.645,0.054-1.291,0.054-1.963,0.054
							c-5.16,0-10.139-0.775-14.834-2.244C15.129,92.081,0.191,72.937,0.191,50.311C0.191,22.523,22.716,0,50.501,0
							C78.288,0,100.812,22.523,100.812,50.311z"/>
					</g>
				</g>
			</g>
			<g>
				<path fill="#FFFFFF" d="M39.52,66.138c-5.616-0.624-9.415-3.313-11.473-8.471c1.756-0.077,3.373-0.149,4.992-0.224
					c-5.81-2.219-9.056-6.205-9.49-12.419c1.788,0.494,3.475,0.959,5.16,1.425c-5.307-6.228-6.409-11.447-3.304-16.674
					c6.734,7.841,15.21,12.209,25.444,12.946c0.09-1.865-0.048-3.68,0.294-5.399c1.874-9.383,13.271-13.167,20.407-6.79
					c0.727,0.649,1.344,0.784,2.152,0.49c2.136-0.774,4.27-1.565,6.449-2.367c-0.826,2.658-2.616,4.652-4.761,6.581
					c2.073-0.551,4.147-1.102,6.217-1.653c0.077,0.076,0.154,0.149,0.231,0.226c-1.588,1.624-3.066,3.38-4.805,4.82
					c-1.018,0.843-1.23,1.678-1.229,2.861c0.021,14.477-9.123,28.052-22.628,33.053c-10.854,4.02-21.394,2.906-31.431-3.028
					C28.229,71.784,34.13,70.233,39.52,66.138z"/>
			</g>
		</g>
	</g>
</g>
</svg>
