<?xml version="1.0" encoding="utf-8"?>
<!-- Generator: Adobe Illustrator 16.0.0, SVG Export Plug-In . SVG Version: 6.00 Build 0)  -->
<!DOCTYPE svg PUBLIC "-//W3C//DTD SVG 1.1//EN" "http://www.w3.org/Graphics/SVG/1.1/DTD/svg11.dtd">
<svg version="1.1" id="Layer_1" xmlns="http://www.w3.org/2000/svg" xmlns:xlink="http://www.w3.org/1999/xlink" x="0px" y="0px"
	 width="27px" height="26px" viewBox="0 0 27 26" enable-background="new 0 0 27 26" xml:space="preserve">
<path fill="#FFFFFF" d="M12.916,7.181l-8.493,8.076v8.717c0,0.225,0.078,0.44,0.216,0.601s0.326,0.25,0.521,0.25l5.162-0.016
	c0.195-0.001,0.381-0.091,0.519-0.251c0.138-0.16,0.215-0.375,0.215-0.601v-5.09c0-0.226,0.078-0.442,0.216-0.602
	s0.326-0.249,0.521-0.249h2.948c0.195,0,0.383,0.09,0.521,0.249c0.138,0.159,0.215,0.376,0.215,0.602v5.086
	c0,0.112,0.02,0.224,0.057,0.327c0.036,0.103,0.09,0.197,0.159,0.277c0.068,0.079,0.149,0.142,0.239,0.185s0.186,0.065,0.283,0.065
	l5.159,0.017c0.196,0,0.384-0.09,0.521-0.25s0.216-0.376,0.216-0.601v-8.723l-8.491-8.07c-0.1-0.093-0.224-0.144-0.352-0.144
	C13.14,7.037,13.016,7.087,12.916,7.181z M26.33,12.669l-3.851-3.665V1.638c0-0.169-0.058-0.332-0.161-0.451
	C22.215,1.067,22.074,1,21.927,1h-2.579c-0.146,0-0.287,0.067-0.391,0.187c-0.104,0.12-0.162,0.282-0.162,0.451V5.5L14.67,1.583
	c-0.395-0.376-0.892-0.582-1.404-0.582s-1.009,0.205-1.405,0.582L0.201,12.669c-0.056,0.054-0.103,0.119-0.136,0.193
	c-0.034,0.074-0.055,0.155-0.062,0.239c-0.007,0.083,0,0.167,0.022,0.248c0.021,0.08,0.056,0.154,0.103,0.219l1.175,1.648
	c0.046,0.065,0.103,0.119,0.167,0.158c0.064,0.04,0.134,0.063,0.207,0.072c0.072,0.008,0.146,0,0.215-0.025
	c0.07-0.023,0.134-0.064,0.19-0.117L12.916,5c0.1-0.093,0.224-0.144,0.353-0.144c0.128,0,0.252,0.051,0.352,0.144l10.836,10.305
	c0.056,0.053,0.12,0.094,0.189,0.117c0.069,0.025,0.143,0.033,0.215,0.026c0.072-0.009,0.143-0.032,0.206-0.072
	c0.064-0.039,0.121-0.093,0.168-0.157l1.174-1.648c0.047-0.064,0.082-0.14,0.104-0.22c0.021-0.081,0.027-0.165,0.02-0.249
	c-0.007-0.084-0.028-0.165-0.063-0.239C26.434,12.788,26.387,12.723,26.33,12.669z"/>
</svg>
