<svg width="27" height="26" viewBox="0 0 27 26" fill="none" xmlns="http://www.w3.org/2000/svg">
<path d="M26.5327 10.4022V11.3067C26.5327 12.056 26.0377 12.6635 25.4271 12.6635H25.0586L23.8558 22.997C23.7002 24.3338 22.7673 25.3268 21.667 25.3268H4.8657C3.76538 25.3268 2.8325 24.3338 2.67685 22.997L1.47404 12.6635H1.10553C0.494954 12.6635 0 12.056 0 11.3067V10.4022C0 9.65283 0.494954 9.04539 1.10553 9.04539H4.2075L9.12618 0.745204C9.60501 -0.0627606 10.5268 -0.241461 11.1853 0.346197C11.8437 0.933854 11.9892 2.06524 11.5104 2.87326L7.85279 9.04539H18.6799L15.0223 2.87321C14.5434 2.06524 14.6891 0.933797 15.3474 0.34614C16.0057 -0.241517 16.9277 -0.0628737 17.4065 0.745148L22.3252 9.04539H25.4271C26.0377 9.04539 26.5327 9.65283 26.5327 10.4022ZM14.3719 20.3519V14.0203C14.3719 13.2709 13.8769 12.6635 13.2663 12.6635C12.6558 12.6635 12.1608 13.2709 12.1608 14.0203V20.3519C12.1608 21.1013 12.6558 21.7087 13.2663 21.7087C13.8769 21.7087 14.3719 21.1013 14.3719 20.3519ZM19.531 20.3519V14.0203C19.531 13.2709 19.036 12.6635 18.4255 12.6635C17.8149 12.6635 17.3199 13.2709 17.3199 14.0203V20.3519C17.3199 21.1013 17.8149 21.7087 18.4255 21.7087C19.036 21.7087 19.531 21.1013 19.531 20.3519ZM9.21273 20.3519V14.0203C9.21273 13.2709 8.71778 12.6635 8.1072 12.6635C7.49663 12.6635 7.00167 13.2709 7.00167 14.0203V20.3519C7.00167 21.1013 7.49663 21.7087 8.1072 21.7087C8.71778 21.7087 9.21273 21.1013 9.21273 20.3519Z" fill="white"/>
</svg>
