<?xml version="1.0" encoding="utf-8"?>
<!-- Generator: Adobe Illustrator 16.0.0, SVG Export Plug-In . SVG Version: 6.00 Build 0)  -->
<!DOCTYPE svg PUBLIC "-//W3C//DTD SVG 1.1//EN" "http://www.w3.org/Graphics/SVG/1.1/DTD/svg11.dtd">
<svg version="1.1" id="Layer_1" xmlns="http://www.w3.org/2000/svg" xmlns:xlink="http://www.w3.org/1999/xlink" x="0px" y="0px"
	 width="26px" height="29px" viewBox="0 0 26 29" enable-background="new 0 0 26 29" xml:space="preserve">
<path fill="#FFFFFF" d="M16.494,12.968c0,1.039-0.865,1.884-1.928,1.884h-3.644v-3.769h3.644
	C15.629,11.083,16.494,11.929,16.494,12.968z M25.703,14.852c0,6.94-5.752,12.562-12.852,12.562S0,21.792,0,14.852
	S5.752,2.29,12.852,2.29S25.703,7.912,25.703,14.852z M19.064,12.968c0-2.427-2.017-4.397-4.498-4.397H8.354v12.562h2.57v-3.769
	h3.643C17.049,17.364,19.064,15.395,19.064,12.968z"/>
</svg>
