<svg width="27" height="29" viewBox="0 0 27 29" fill="none" xmlns="http://www.w3.org/2000/svg">
<path d="M22.4058 5.91885C18.8621 3.0453 14.1521 2.39121 10.2395 3.25786C5.86206 -1.92393 0.956742 0.459492 0 1.14467C0 1.14467 3.36633 4.65535 2.81956 7.73016C-1.16587 12.7163 0.728727 18.2678 2.81956 20.8893C3.36633 23.9641 0 27.4748 0 27.4748C0.947529 28.1622 5.83949 30.5383 10.2395 25.383C14.1434 26.244 18.8534 25.5956 22.4058 22.717C27.8994 18.4126 27.9173 10.2453 22.4058 5.91828V5.91885ZM13.551 22.6893C12.181 22.6941 10.8165 22.478 9.49234 22.0465L8.58166 23.1257C8.07582 23.7278 7.50941 24.2481 6.89619 24.6741C6.15219 25.1339 5.34395 25.4164 4.51424 25.5069C4.5603 25.4062 4.60084 25.3056 4.64183 25.2106C5.55297 23.1378 5.79865 21.278 5.37885 19.6314C3.8804 18.1836 2.98354 16.3333 2.98354 14.31C2.98354 9.67432 7.71612 5.91885 13.551 5.91885C19.3859 5.91885 24.1185 9.67432 24.1185 14.31C24.1185 18.9457 19.3859 22.6893 13.551 22.6893ZM8.48124 16.3056C8.06289 16.3129 7.65925 16.1163 7.35878 15.759C7.0583 15.4016 6.8855 14.9127 6.87823 14.3993C6.84598 11.8333 10.0027 11.7773 10.0345 14.3377V14.3665C10.0365 14.6191 9.9978 14.8697 9.92077 15.104C9.84374 15.3383 9.72984 15.5516 9.58558 15.7318C9.44132 15.912 9.26953 16.0555 9.08004 16.1542C8.89055 16.2528 8.68707 16.3047 8.48124 16.3067V16.3056ZM11.8794 14.3993C11.843 11.8333 14.9997 11.7717 15.0361 14.332V14.3665C15.0541 16.915 11.9157 16.9427 11.8794 14.3993ZM18.484 16.3056C18.0656 16.3129 17.6619 16.1163 17.3613 15.759C17.0608 15.4017 16.8879 14.9128 16.8805 14.3993C16.8487 11.8333 20.0054 11.7773 20.0372 14.3377V14.3665C20.0398 14.6194 20.0017 14.8703 19.9249 15.105C19.8481 15.3396 19.7342 15.5532 19.5898 15.7336C19.4454 15.914 19.2734 16.0575 19.0836 16.1558C18.8938 16.2542 18.69 16.3055 18.484 16.3067V16.3056Z" fill="white"/>
</svg>
