<svg width="27" height="26" viewBox="0 0 27 26" fill="none" xmlns="http://www.w3.org/2000/svg">
<path d="M13.3789 0C6.11791 0 0 5.56847 0 12.4428C0 12.6633 0.00592247 25.3266 0.00592247 25.3266L13.3789 25.3153C20.6457 25.3153 26.5327 19.532 26.5327 12.6577C26.5327 5.78329 20.6457 0 13.3789 0ZM13.2663 19.8995C12.1174 19.8995 11.0217 19.6564 10.0445 19.2155L5.24139 20.3518L6.59763 16.1118C6.01723 15.0886 5.68557 13.9127 5.68557 12.6633C5.68557 8.66646 9.07915 5.42714 13.2663 5.42714C17.4535 5.42714 20.8471 8.66646 20.8471 12.6633C20.8471 16.6602 17.4535 19.8995 13.2663 19.8995Z" fill="white"/>
</svg>
